<svg width="36" height="35" viewBox="0 0 36 35" fill="none" xmlns="http://www.w3.org/2000/svg">
<g id="delete">
<mask id="mask0_306_143" style="mask-type:alpha" maskUnits="userSpaceOnUse" x="0" y="0" width="36" height="35">
<rect id="Bounding box" x="0.00146484" width="35" height="35"/>
</mask>
<g>
<path id="delete_2" d="M10.375 31.5924C9.57292 31.5924 8.88628 31.2813 8.3151 30.6592C7.74392 30.037 7.45833 29.2891 7.45833 28.4155V7.7654H6V4.58847H13.2917V3H22.0417V4.58847H29.3333V7.7654H27.875V28.4155C27.875 29.2891 27.5894 30.037 27.0182 30.6592C26.4471 31.2813 25.7604 31.5924 24.9583 31.5924H10.375ZM24.9583 7.7654H10.375V28.4155H24.9583V7.7654ZM13.2917 25.2385H16.2083V10.9423H13.2917V25.2385ZM19.125 25.2385H22.0417V10.9423H19.125V25.2385Z" fill="#1C1B1F"/>
</g>
</g>
</svg>
